<?xml version="1.0" ?>
<svg id="Layer_1" style="enable-background:new 0 0 512 512;" version="1.1" viewBox="0 0 512 512" xml:space="preserve" xmlns="http://www.w3.org/2000/svg" xmlns:xlink="http://www.w3.org/1999/xlink"><g><g><path d="M372.8,7.2c-0.4-0.4-0.8-0.8-1.2-1.2l-24,24c0.4,0.4,0.8,0.8,1.2,1.2c51.2,51.2,51.2,134.5,0,185.7l24,24    C437.3,176.3,437.3,71.7,372.8,7.2z" id="XMLID_9_"/><path d="M324.9,55.1c-0.4-0.4-0.8-0.8-1.2-1.2l-24,24c0.4,0.4,0.8,0.8,1.2,1.2c24.8,24.8,24.8,65.1,0,89.8l24,24    C362.9,154.9,362.9,93.1,324.9,55.1z" id="XMLID_8_"/><path d="M163.2,31.1c0.4-0.4,0.8-0.8,1.2-1.2l-24-24c-0.4,0.4-0.8,0.8-1.2,1.2c-64.5,64.5-64.5,169.1,0,233.6l24-24    C112,165.6,112,82.3,163.2,31.1z" id="XMLID_7_"/><path d="M187.1,55.1c-38,38-38,99.8,0,137.7l24-24c-24.8-24.8-24.8-65.1,0-89.8c0.4-0.4,0.8-0.8,1.2-1.2l-24-24    C187.9,54.3,187.5,54.7,187.1,55.1z" id="XMLID_6_"/><path d="M235,103c-11.6,11.6-11.6,30.4,0,41.9s30.4,11.6,41.9,0c11.6-11.6,11.6-30.4,0-41.9    C265.4,91.4,246.6,91.4,235,103z" id="XMLID_5_"/></g><g><polygon id="XMLID_4_" points="231,162.1 119.7,495.4 151.6,506 266.4,162.1   "/><polygon id="XMLID_3_" points="281,162.1 245.6,162.1 360.4,506 392.3,495.4   "/></g><polygon id="XMLID_2_" points="301.5,293.7 290,284.5 142.5,460.2 161.3,475.3  "/><polygon id="XMLID_1_" points="212.2,293.7 223.7,284.5 371.2,460.2 352.4,475.3  "/></g></svg>